<svg id="gsv_logo_1_1_animation" xmlns="http://www.w3.org/2000/svg" xmlns:xlink="http://www.w3.org/1999/xlink" viewBox="0 0 1550 523.13" shape-rendering="geometricPrecision" text-rendering="geometricPrecision"><g id="gsv_logo_1_1_animation-s-g1" transform="translate(-184.949997-278.935)"><g id="gsv_logo_1_1_animation-s-g2"><g id="gsv_logo_1_1_animation-s-g3"><g id="gsv_logo_1_1_animation-s-g4"><path id="gsv_logo_1_1_animation-s-path1" d="M772.1,611.1c-9.6-4-17.2-9.9-23.1-17.9-5.8-8-8.7-17.6-8.7-28.9v-62.2c0-11,2.9-20.5,8.8-28.3c5.9-7.9,13.6-13.8,23.2-17.8s19.7-6,30.4-6c12.5,0,24.1,2.9,34.8,8.8c10.6,5.9,18.8,14.8,24.4,26.7L838,497c-3.4-6.9-8.3-12-14.8-15.4s-13.5-5-21-5c-9.6,0-18,2.3-25,6.8s-10.6,10.8-10.6,18.9v62c0,8.3,3.6,14.7,10.7,19.3s15.6,6.9,25.4,6.9c9.9,0,18.5-2.3,25.7-6.9s10.8-11,10.8-19.3v-12.8h-45.7v-25.5h72v38.3c0,11.3-2.9,21-8.8,28.9-5.9,8-13.6,13.9-23.2,17.9s-19.8,6-30.9,6c-10.7,0-20.9-2-30.5-6Z" fill="#184786"/><path id="gsv_logo_1_1_animation-s-path2" d="M907.5,606.9c-11.1-6.8-19.4-16.5-24.9-29l24.3-11c3.5,7.7,8.6,13.5,15.3,17.6s13.9,6.1,21.7,6.1c9.3,0,17.2-2,23.6-5.9s9.6-9.5,9.6-16.9c0-5.2-1.6-9.4-4.8-12.5s-7.3-5.5-12.2-7-11.5-3.1-19.7-4.6c-16.8-3.2-30.2-8.4-40-15.6-9.9-7.2-14.8-17.4-14.8-30.7c0-9.2,2.7-17.4,8-24.6c5.4-7.2,12.5-12.8,21.5-16.8c8.9-4,18.5-6,28.6-6c13.2,0,24.9,2.8,35.1,8.4s18,14.5,23.4,26.7l-24.1,10.8c-3.2-7-7.7-12-13.5-14.9s-12.8-4.4-20.9-4.4c-8.6,0-16,1.9-22.3,5.6-6.3,3.8-9.4,8.9-9.4,15.5c0,5.8,3,10.2,8.9,13.1c6,2.9,14.4,5.4,25.2,7.3c18.4,3.4,32.6,8.8,42.8,16.2s15.3,18.6,15.3,33.4c0,10.6-2.8,19.5-8.3,27-5.5,7.4-12.8,13-22,16.8-9.2,3.7-19.4,5.6-30.5,5.6-12.8,0-24.8-3.4-35.9-10.2Z" fill="#184786"/><path id="gsv_logo_1_1_animation-s-path3" d="M1010.2,452.3h28.2l35.8,103.3l7.8,30.5h2.3l6.9-31l36.3-102.8h28L1097,614.8h-28l-58.8-162.5Z" fill="#184786"/><path id="gsv_logo_1_1_animation-s-path4" d="M1319.5,478.9h-80.5v41.3h74.1v26.6h-74.1v41.3h80.5v26.6h-107.2v-162.4h107.2v26.6Z" fill="#184786"/><path id="gsv_logo_1_1_animation-s-path5" d="M1386.7,533.8l-55.1-81.5h32.1l39.2,61l39.2-61h32.1l-55.3,81.5l55.5,81h-32.4l-39.2-60.3-39.2,60.3h-32.6l55.7-81Z" fill="#184786"/><path id="gsv_logo_1_1_animation-s-path6" d="M1492.5,452.3h26.4v162.5h-26.4v-162.5Z" fill="#184786"/><path id="gsv_logo_1_1_animation-s-path7" d="M1551.9,452.3h29.6l44.7,105.5l45.2-105.5h29.8v162.5h-26.6v-74.6l5-44.1h-2.3l-13.8,38.3-26.6,57.8h-20.9l-26.8-57.8-13.5-39h-2.3l4.8,45v74.3h-26.4v-162.4Z" fill="#184786"/></g><g id="gsv_logo_1_1_animation-s-g5"><path id="gsv_logo_1_1_animation-s-path8" d="M906.4,667.3L895.5,648h4.4l8.4,15.5l8.5-15.5h4.5l-11.1,19.3v12.4h-3.8v-12.4Z" fill="#f17421"/><path id="gsv_logo_1_1_animation-s-path9" d="M936.2,679c-1.9-.8-3.4-1.9-4.6-3.4s-1.7-3.3-1.7-5.3v-12.9c0-2.1.6-3.9,1.7-5.3c1.2-1.5,2.7-2.6,4.6-3.3s3.9-1.1,6.1-1.1c2.1,0,4.2.4,6.1,1.1s3.4,1.9,4.6,3.3c1.2,1.5,1.8,3.3,1.8,5.3v12.9c0,2.1-.6,3.9-1.8,5.3-1.2,1.5-2.7,2.6-4.6,3.4s-3.9,1.1-6.1,1.1-4.2-.3-6.1-1.1Zm12.2-4.3c1.7-1.1,2.6-2.6,2.6-4.5v-12.8c0-2-.8-3.5-2.5-4.5s-3.8-1.5-6.2-1.5-4.5.6-6.1,1.6c-1.7,1-2.5,2.5-2.5,4.4v12.8c0,1.9.9,3.4,2.6,4.5s3.7,1.6,6.1,1.6c2.2.1,4.3-.5,6-1.6Z" fill="#f17421"/><path id="gsv_logo_1_1_animation-s-path10" d="M973.7,679c-1.8-.8-3.3-1.9-4.4-3.4s-1.7-3.3-1.7-5.4v-22.2h3.8v22.1c0,2,.8,3.5,2.4,4.6s3.5,1.6,5.6,1.6c1.4,0,2.7-.2,4-.7c1.2-.5,2.2-1.2,3-2.1s1.1-2.1,1.1-3.4v-22.1h3.8v22.2c0,2.1-.6,3.9-1.7,5.4s-2.6,2.6-4.4,3.4-3.7,1.1-5.8,1.1c-2,0-3.9-.3-5.7-1.1Z" fill="#f17421"/><path id="gsv_logo_1_1_animation-s-path11" d="M1032.5,648.1c2.1,0,3.9.3,5.7,1c1.7.7,3.1,1.7,4.1,3.1s1.5,3.2,1.5,5.3v12.8c0,3.1-1.1,5.4-3.2,7s-4.8,2.3-8,2.3h-11.1v-31.6h11Zm5.3,26.4c1.4-.9,2.1-2.3,2.1-4.2v-12.8c0-1.9-.7-3.3-2.1-4.3-1.4-.9-3.2-1.4-5.4-1.4h-7.4v24h7.4c2.3.1,4-.4,5.4-1.3Z" fill="#f17421"/><path id="gsv_logo_1_1_animation-s-path12" d="M1077.1,651.9h-16.4v10.1h15.1v3.8h-15.1v10.1h16.4v3.8h-20.1v-31.6h20.1v3.8Z" fill="#f17421"/><path id="gsv_logo_1_1_animation-s-path13" d="M1089.7,648.1h4.6l9.6,22.3l9.6-22.3h4.6v31.6h-3.8v-18.7l.7-7h-.4l-2.3,6.2-6.7,14.9h-3.2l-6.9-15.1-2.2-6.1h-.4l.6,6.9v18.9h-3.8v-31.6Z" fill="#f17421"/><path id="gsv_logo_1_1_animation-s-path14" d="M1152.1,679.7l-3.4-9.3h-12.4l-3.3,9.3h-4.1l11.5-31.6h4.2l11.5,31.6h-4Zm-10.8-23.8l-3.7,10.7h9.7l-3.7-10.7-1.1-4h-.2l-1,4Z" fill="#f17421"/><path id="gsv_logo_1_1_animation-s-path15" d="M1166.9,648.1h4.2l13.1,21.9l2.7,5.1h.1l-.5-5.5v-21.4h3.8v31.6h-4.6L1172.6,658l-2.4-4.6h-.1l.5,5.1v21.4h-3.8v-31.8Z" fill="#f17421"/><path id="gsv_logo_1_1_animation-s-path16" d="M1215.5,648.1c2.1,0,3.9.3,5.7,1c1.7.7,3.1,1.7,4.1,3.1s1.5,3.2,1.5,5.3v12.8c0,3.1-1.1,5.4-3.2,7s-4.8,2.3-8,2.3h-11.1v-31.6h11Zm5.3,26.4c1.4-.9,2.1-2.3,2.1-4.2v-12.8c0-1.9-.7-3.3-2.1-4.3-1.4-.9-3.2-1.4-5.4-1.4h-7.4v24h7.4c2.3.1,4-.4,5.4-1.3Z" fill="#f17421"/><path id="gsv_logo_1_1_animation-s-path17" d="M1252.3,648.1h4l6.5,22.6.8,4.6h.3l.9-4.8l5.9-17.7h3.4l5.9,17.9l1.1,4.6h.4l.7-4.5l6.5-22.6h3.9l-9.2,31.6h-4.2l-6-18.5-.6-3.3h-.1l-.7,3.3-5.9,18.5h-4.2l-9.4-31.7Z" fill="#184786"/><path id="gsv_logo_1_1_animation-s-path18" d="M1323.9,651.9h-16.4v10.1h15.1v3.8h-15.1v10.1h16.4v3.8h-20.1v-31.6h20.1v3.8Z" fill="#184786"/><path id="gsv_logo_1_1_animation-s-path19" d="M1372.9,651.9h-16.4v10.1h15.1v3.8h-15.1v10.1h16.4v3.8h-20.1v-31.6h20.1v3.8Z" fill="#184786"/><path id="gsv_logo_1_1_animation-s-path20" d="M1393.1,663.9L1382.5,648h4.6l8.4,12.9l8.4-12.9h4.6l-10.6,15.9l10.7,15.8h-4.6l-8.4-12.9-8.4,12.9h-4.6l10.5-15.8Z" fill="#184786"/><path id="gsv_logo_1_1_animation-s-path21" d="M1431.2,648.1c2.2,0,4.1.5,5.7,1.5s2.8,2.2,3.6,3.8c.8,1.5,1.2,3.2,1.2,4.9s-.4,3.4-1.2,4.9-2,2.7-3.6,3.7c-1.6.9-3.5,1.4-5.7,1.4h-8.2v11.5h-3.8v-31.6h12Zm3.7,15.7c1-.6,1.8-1.4,2.3-2.4s.8-2,.8-3.1-.3-2.1-.8-3.1-1.3-1.8-2.3-2.4-2.2-.9-3.7-.9h-8.1v12.9h8.1c1.4-.1,2.7-.4,3.7-1Z" fill="#184786"/><path id="gsv_logo_1_1_animation-s-path22" d="M1459.2,679c-1.9-.8-3.4-1.9-4.6-3.4s-1.7-3.3-1.7-5.3v-12.9c0-2.1.6-3.9,1.7-5.3c1.2-1.5,2.7-2.6,4.6-3.3s3.9-1.1,6.1-1.1c2.1,0,4.2.4,6.1,1.1s3.4,1.9,4.6,3.3s1.8,3.3,1.8,5.3v12.9c0,2.1-.6,3.9-1.8,5.3-1.2,1.5-2.7,2.6-4.6,3.4s-3.9,1.1-6.1,1.1-4.2-.3-6.1-1.1Zm12.2-4.3c1.7-1.1,2.6-2.6,2.6-4.5v-12.8c0-2-.8-3.5-2.5-4.5s-3.8-1.5-6.2-1.5-4.5.6-6.1,1.6c-1.7,1-2.5,2.5-2.5,4.4v12.8c0,1.9.9,3.4,2.6,4.5s3.7,1.6,6.1,1.6c2.2.1,4.3-.5,6-1.6Z" fill="#184786"/><path id="gsv_logo_1_1_animation-s-path23" d="M1499.6,666.8h-4.9v12.9h-3.8v-31.6h11.9c3.2,0,5.7.8,7.6,2.3s2.9,3.9,3,7.1c0,2.9-.8,5.2-2.5,6.8s-3.9,2.4-6.9,2.6l10,12.9h-4.6l-9.8-13Zm-4.9-3.3h8.1c4.6,0,6.8-2,6.8-6c0-3.8-2.3-5.7-6.8-5.7h-8.1v11.7Z" fill="#184786"/><path id="gsv_logo_1_1_animation-s-path24" d="M1532.4,651.9h-9.9v-3.8h23.6v3.8h-9.9v27.8h-3.8v-27.8Z" fill="#184786"/></g></g><g id="gsv_logo_1_1_animation-s-g6"><g id="gsv_logo_1_1_animation-s-g7"><path id="gsv_logo_1_1_animation-s-path25" d="M433.6,468.7c-8.6,10.9-13.8,25.6-13.8,41.8c0,33.7,22.8,61.1,51,61.1c21.2,0,39.4-15.5,47.1-37.6l-54.5-30.5L558.6,520c-2.5,11.4-6.3,23.3-11,35.4-15.5,39.5-42.1,81.7-75.4,119.6-125.6-103.4-139.5-266.3,0-269.1c66.2,1.3,92.1,36.4,90.3,85l-46.2-8c-8.4-19.9-25.7-33.6-45.6-33.6-14.5.1-27.8,7.5-37.1,19.4Z" fill="#184786"/><polygon id="gsv_logo_1_1_animation-s-polygon1" points="560.2,519.9 462.2,503 525.4,540.5 527.9,614" fill="#f17421"/></g><g id="gsv_logo_1_1_animation-s-g8"><g id="gsv_logo_1_1_animation-s-g9"><path id="gsv_logo_1_1_animation-s-path26" d="M577.8,420.6c-25-23-57.2-38.2-92.9-41.9-5.6-.6-11.4-.9-17.2-.9s-11.5.3-17.2.9c-32.4,3.4-62,16.3-85.9,35.9l12.5,8.4c25.1-19.4,56.5-30.9,90.7-30.9c44.5,0,84.5,19.6,111.7,50.7l5.5-8.2l2.7-4.1c-3.2-3.5-6.5-6.8-9.9-9.9Z" fill="#184786"/><path id="gsv_logo_1_1_animation-s-path27" d="M357.7,420.6v0c-3.5,3.1-6.7,6.5-9.9,9.9-23,25-38.2,57.2-41.9,92.9-.6,5.6-.9,11.4-.9,17.2s.3,11.5.9,17.2c3.4,32.4,16.3,62,35.9,86l8.4-12.5c-19.4-25.1-30.9-56.5-30.9-90.7c0-44.5,19.6-84.5,50.7-111.7l-8.2-5.5-4.1-2.8Z" fill="#184786"/><path id="gsv_logo_1_1_animation-s-path28" d="M629.6,523.3c-3.4-32.4-16.3-62-35.9-85.9l-8.4,12.4c19.4,25.1,30.9,56.5,30.9,90.7c0,44.5-19.6,84.5-50.7,111.7l8.1,5.5l4.1,2.7c3.4-3.1,6.7-6.5,9.9-9.9c23-25,38.2-57.2,41.9-92.9.6-5.6.9-11.4.9-17.2.1-5.7-.2-11.4-.8-17.1Z" fill="#f17421"/><path id="gsv_logo_1_1_animation-s-path29" d="M558.4,658.1c-25.1,19.4-56.5,30.9-90.7,30.9-44.6,0-84.5-19.6-111.7-50.7l-5.5,8.2-2.7,4.1c3.1,3.4,6.4,6.7,9.9,9.9c25,23,57.2,38.2,92.9,41.9c5.6.6,11.4.9,17.2.9s11.5-.3,17.2-.9c32.4-3.4,62-16.3,85.9-35.9l-12.5-8.4Z" fill="#f17421"/><polygon id="gsv_logo_1_1_animation-s-polygon2" points="467.7,291.5 449.7,382.7 467.7,382.7 485.7,382.7" fill="#184786"/><polygon id="gsv_logo_1_1_animation-s-polygon3" points="607.7,400.5 587.6,430.5 587.6,430.5 584.9,434.5 573.7,423.3 577.8,420.6" fill="#184786"/><polygon id="gsv_logo_1_1_animation-s-polygon4" points="607.7,680.5 577.7,660.4 573.7,657.7 579.3,652.1 584.9,646.5 587.6,650.5" fill="#f17421"/><polygon id="gsv_logo_1_1_animation-s-polygon5" points="361.7,657.7 357.7,660.4 327.7,680.5 347.8,650.5 347.8,650.5 350.5,646.5" fill="#f17421"/><polygon id="gsv_logo_1_1_animation-s-polygon6" points="327.7,400.5 350.5,434.5 356.1,428.9 361.8,423.3" fill="#184786"/><polygon id="gsv_logo_1_1_animation-s-polygon7" points="716.7,540.5 625.5,522.5 625.5,540.5 625.5,558.5" fill="#f17421"/><polygon id="gsv_logo_1_1_animation-s-polygon8" points="467.7,789.5 485.7,698.3 467.7,698.3 449.7,698.3" fill="#f17421"/><polygon id="gsv_logo_1_1_animation-s-polygon9" points="218.7,540.5 309.9,558.5 309.9,540.5 309.9,522.5" fill="#184786"/></g></g></g></g></g>
<script><![CDATA[
!function(t,n){"object"==typeof exports&&"undefined"!=typeof module?module.exports=n():"function"==typeof __SVGATOR_DEFINE__&&__SVGATOR_DEFINE__.amd?__SVGATOR_DEFINE__(n):((t="undefined"!=typeof globalThis?globalThis:t||self).__SVGATOR_PLAYER__=t.__SVGATOR_PLAYER__||{},t.__SVGATOR_PLAYER__["5c7f360c"]=n())}(this,(function(){"use strict";function t(t,n){var e=Object.keys(t);if(Object.getOwnPropertySymbols){var r=Object.getOwnPropertySymbols(t);n&&(r=r.filter((function(n){return Object.getOwnPropertyDescriptor(t,n).enumerable}))),e.push.apply(e,r)}return e}function n(n){for(var e=1;e<arguments.length;e++){var r=null!=arguments[e]?arguments[e]:{};e%2?t(Object(r),!0).forEach((function(t){o(n,t,r[t])})):Object.getOwnPropertyDescriptors?Object.defineProperties(n,Object.getOwnPropertyDescriptors(r)):t(Object(r)).forEach((function(t){Object.defineProperty(n,t,Object.getOwnPropertyDescriptor(r,t))}))}return n}function e(t){return(e="function"==typeof Symbol&&"symbol"==typeof Symbol.iterator?function(t){return typeof t}:function(t){return t&&"function"==typeof Symbol&&t.constructor===Symbol&&t!==Symbol.prototype?"symbol":typeof t})(t)}function r(t,n){if(!(t instanceof n))throw new TypeError("Cannot call a class as a function")}function i(t,n){for(var e=0;e<n.length;e++){var r=n[e];r.enumerable=r.enumerable||!1,r.configurable=!0,"value"in r&&(r.writable=!0),Object.defineProperty(t,r.key,r)}}function u(t,n,e){return n&&i(t.prototype,n),e&&i(t,e),t}function o(t,n,e){return n in t?Object.defineProperty(t,n,{value:e,enumerable:!0,configurable:!0,writable:!0}):t[n]=e,t}function a(t){return(a=Object.setPrototypeOf?Object.getPrototypeOf:function(t){return t.__proto__||Object.getPrototypeOf(t)})(t)}function l(t,n){return(l=Object.setPrototypeOf||function(t,n){return t.__proto__=n,t})(t,n)}function s(){if("undefined"==typeof Reflect||!Reflect.construct)return!1;if(Reflect.construct.sham)return!1;if("function"==typeof Proxy)return!0;try{return Boolean.prototype.valueOf.call(Reflect.construct(Boolean,[],(function(){}))),!0}catch(t){return!1}}function f(t,n,e){return(f=s()?Reflect.construct:function(t,n,e){var r=[null];r.push.apply(r,n);var i=new(Function.bind.apply(t,r));return e&&l(i,e.prototype),i}).apply(null,arguments)}function c(t,n){if(n&&("object"==typeof n||"function"==typeof n))return n;if(void 0!==n)throw new TypeError("Derived constructors may only return object or undefined");return function(t){if(void 0===t)throw new ReferenceError("this hasn't been initialised - super() hasn't been called");return t}(t)}function h(t,n,e){return(h="undefined"!=typeof Reflect&&Reflect.get?Reflect.get:function(t,n,e){var r=function(t,n){for(;!Object.prototype.hasOwnProperty.call(t,n)&&null!==(t=a(t)););return t}(t,n);if(r){var i=Object.getOwnPropertyDescriptor(r,n);return i.get?i.get.call(e):i.value}})(t,n,e||t)}function v(t){return function(t){if(Array.isArray(t))return y(t)}(t)||function(t){if("undefined"!=typeof Symbol&&null!=t[Symbol.iterator]||null!=t["@@iterator"])return Array.from(t)}(t)||function(t,n){if(!t)return;if("string"==typeof t)return y(t,n);var e=Object.prototype.toString.call(t).slice(8,-1);"Object"===e&&t.constructor&&(e=t.constructor.name);if("Map"===e||"Set"===e)return Array.from(t);if("Arguments"===e||/^(?:Ui|I)nt(?:8|16|32)(?:Clamped)?Array$/.test(e))return y(t,n)}(t)||function(){throw new TypeError("Invalid attempt to spread non-iterable instance.\nIn order to be iterable, non-array objects must have a [Symbol.iterator]() method.")}()}function y(t,n){(null==n||n>t.length)&&(n=t.length);for(var e=0,r=new Array(n);e<n;e++)r[e]=t[e];return r}Number.isInteger||(Number.isInteger=function(t){return"number"==typeof t&&isFinite(t)&&Math.floor(t)===t}),Number.EPSILON||(Number.EPSILON=2220446049250313e-31);var g=p(Math.pow(10,-6));function p(t){var n=arguments.length>1&&void 0!==arguments[1]?arguments[1]:6;if(Number.isInteger(t))return t;var e=Math.pow(10,n);return Math.round((+t+Number.EPSILON)*e)/e}function d(t,n){var e=arguments.length>2&&void 0!==arguments[2]?arguments[2]:g;return Math.abs(t-n)<e}var m=Math.PI/180;function b(t){return t}function w(t,n,e){var r=1-e;return 3*e*r*(t*r+n*e)+e*e*e}function A(){var t=arguments.length>0&&void 0!==arguments[0]?arguments[0]:0,n=arguments.length>1&&void 0!==arguments[1]?arguments[1]:0,e=arguments.length>2&&void 0!==arguments[2]?arguments[2]:1,r=arguments.length>3&&void 0!==arguments[3]?arguments[3]:1;return t<0||t>1||e<0||e>1?null:d(t,n)&&d(e,r)?b:function(i){if(i<=0)return t>0?i*n/t:0===n&&e>0?i*r/e:0;if(i>=1)return e<1?1+(i-1)*(r-1)/(e-1):1===e&&t<1?1+(i-1)*(n-1)/(t-1):1;for(var u,o=0,a=1;o<a;){var l=w(t,e,u=(o+a)/2);if(d(i,l))break;l<i?o=u:a=u}return w(n,r,u)}}function _(){return 1}function x(t){return 1===t?1:0}function k(){var t=arguments.length>0&&void 0!==arguments[0]?arguments[0]:1,n=arguments.length>1&&void 0!==arguments[1]?arguments[1]:0;if(1===t){if(0===n)return x;if(1===n)return _}var e=1/t;return function(t){return t>=1?1:(t+=n*e)-t%e}}var S=Math.sin,O=Math.cos,j=Math.acos,E=Math.asin,M=Math.tan,P=Math.atan2,I=Math.PI/180,R=180/Math.PI,F=Math.sqrt,N=function(){function t(){var n=arguments.length>0&&void 0!==arguments[0]?arguments[0]:1,e=arguments.length>1&&void 0!==arguments[1]?arguments[1]:0,i=arguments.length>2&&void 0!==arguments[2]?arguments[2]:0,u=arguments.length>3&&void 0!==arguments[3]?arguments[3]:1,o=arguments.length>4&&void 0!==arguments[4]?arguments[4]:0,a=arguments.length>5&&void 0!==arguments[5]?arguments[5]:0;r(this,t),this.m=[n,e,i,u,o,a],this.i=null,this.w=null,this.s=null}return u(t,[{key:"determinant",get:function(){var t=this.m;return t[0]*t[3]-t[1]*t[2]}},{key:"isIdentity",get:function(){if(null===this.i){var t=this.m;this.i=1===t[0]&&0===t[1]&&0===t[2]&&1===t[3]&&0===t[4]&&0===t[5]}return this.i}},{key:"point",value:function(t,n){var e=this.m;return{x:e[0]*t+e[2]*n+e[4],y:e[1]*t+e[3]*n+e[5]}}},{key:"translateSelf",value:function(){var t=arguments.length>0&&void 0!==arguments[0]?arguments[0]:0,n=arguments.length>1&&void 0!==arguments[1]?arguments[1]:0;if(!t&&!n)return this;var e=this.m;return e[4]+=e[0]*t+e[2]*n,e[5]+=e[1]*t+e[3]*n,this.w=this.s=this.i=null,this}},{key:"rotateSelf",value:function(){var t=arguments.length>0&&void 0!==arguments[0]?arguments[0]:0;if(t%=360){var n=S(t*=I),e=O(t),r=this.m,i=r[0],u=r[1];r[0]=i*e+r[2]*n,r[1]=u*e+r[3]*n,r[2]=r[2]*e-i*n,r[3]=r[3]*e-u*n,this.w=this.s=this.i=null}return this}},{key:"scaleSelf",value:function(){var t=arguments.length>0&&void 0!==arguments[0]?arguments[0]:1,n=arguments.length>1&&void 0!==arguments[1]?arguments[1]:1;if(1!==t||1!==n){var e=this.m;e[0]*=t,e[1]*=t,e[2]*=n,e[3]*=n,this.w=this.s=this.i=null}return this}},{key:"skewSelf",value:function(t,n){if(n%=360,(t%=360)||n){var e=this.m,r=e[0],i=e[1],u=e[2],o=e[3];t&&(t=M(t*I),e[2]+=r*t,e[3]+=i*t),n&&(n=M(n*I),e[0]+=u*n,e[1]+=o*n),this.w=this.s=this.i=null}return this}},{key:"resetSelf",value:function(){var t=arguments.length>0&&void 0!==arguments[0]?arguments[0]:1,n=arguments.length>1&&void 0!==arguments[1]?arguments[1]:0,e=arguments.length>2&&void 0!==arguments[2]?arguments[2]:0,r=arguments.length>3&&void 0!==arguments[3]?arguments[3]:1,i=arguments.length>4&&void 0!==arguments[4]?arguments[4]:0,u=arguments.length>5&&void 0!==arguments[5]?arguments[5]:0,o=this.m;return o[0]=t,o[1]=n,o[2]=e,o[3]=r,o[4]=i,o[5]=u,this.w=this.s=this.i=null,this}},{key:"recomposeSelf",value:function(){var t=arguments.length>0&&void 0!==arguments[0]?arguments[0]:null,n=arguments.length>1&&void 0!==arguments[1]?arguments[1]:null,e=arguments.length>2&&void 0!==arguments[2]?arguments[2]:null,r=arguments.length>3&&void 0!==arguments[3]?arguments[3]:null,i=arguments.length>4&&void 0!==arguments[4]?arguments[4]:null;return this.isIdentity||this.resetSelf(),t&&(t.x||t.y)&&this.translateSelf(t.x,t.y),n&&this.rotateSelf(n),e&&(e.x&&this.skewSelf(e.x,0),e.y&&this.skewSelf(0,e.y)),!r||1===r.x&&1===r.y||this.scaleSelf(r.x,r.y),i&&(i.x||i.y)&&this.translateSelf(i.x,i.y),this}},{key:"decompose",value:function(){var t=arguments.length>0&&void 0!==arguments[0]?arguments[0]:0,n=arguments.length>1&&void 0!==arguments[1]?arguments[1]:0,e=this.m,r=e[0]*e[0]+e[1]*e[1],i=[[e[0],e[1]],[e[2],e[3]]],u=F(r);if(0===u)return{origin:{x:p(e[4]),y:p(e[5])},translate:{x:p(t),y:p(n)},scale:{x:0,y:0},skew:{x:0,y:0},rotate:0};i[0][0]/=u,i[0][1]/=u;var o=e[0]*e[3]-e[1]*e[2]<0;o&&(u=-u);var a=i[0][0]*i[1][0]+i[0][1]*i[1][1];i[1][0]-=i[0][0]*a,i[1][1]-=i[0][1]*a;var l=F(i[1][0]*i[1][0]+i[1][1]*i[1][1]);if(0===l)return{origin:{x:p(e[4]),y:p(e[5])},translate:{x:p(t),y:p(n)},scale:{x:p(u),y:0},skew:{x:0,y:0},rotate:0};i[1][0]/=l,i[1][1]/=l,a/=l;var s=0;return i[1][1]<0?(s=j(i[1][1])*R,i[0][1]<0&&(s=360-s)):s=E(i[0][1])*R,o&&(s=-s),a=P(a,F(i[0][0]*i[0][0]+i[0][1]*i[0][1]))*R,o&&(a=-a),{origin:{x:p(e[4]),y:p(e[5])},translate:{x:p(t),y:p(n)},scale:{x:p(u),y:p(l)},skew:{x:p(a),y:0},rotate:p(s)}}},{key:"clone",value:function(){var t=this.m;return new this.constructor(t[0],t[1],t[2],t[3],t[4],t[5])}},{key:"toString",value:function(){var t=arguments.length>0&&void 0!==arguments[0]?arguments[0]:" ";if(null===this.s){var n=this.m.map((function(t){return p(t)}));1===n[0]&&0===n[1]&&0===n[2]&&1===n[3]?this.s="translate("+n[4]+t+n[5]+")":this.s="matrix("+n.join(t)+")"}return this.s}}],[{key:"create",value:function(t){return t?Array.isArray(t)?f(this,v(t)):t instanceof this?t.clone():(new this).recomposeSelf(t.origin,t.rotate,t.skew,t.scale,t.translate):new this}}]),t}();function T(t,n,e){return t>=.5?e:n}function q(t,n,e){return 0===t||n===e?n:t*(e-n)+n}function B(t,n,e){var r=q(t,n,e);return r<=0?0:r}function D(t,n,e){var r=q(t,n,e);return r<=0?0:r>=1?1:r}function L(t,n,e){return 0===t?n:1===t?e:{x:q(t,n.x,e.x),y:q(t,n.y,e.y)}}function C(t,n,e){var r=function(t,n,e){return Math.round(q(t,n,e))}(t,n,e);return r<=0?0:r>=255?255:r}function V(t,n,e){return 0===t?n:1===t?e:{r:C(t,n.r,e.r),g:C(t,n.g,e.g),b:C(t,n.b,e.b),a:q(t,null==n.a?1:n.a,null==e.a?1:e.a)}}function G(t,n){for(var e=[],r=0;r<t;r++)e.push(n);return e}function z(t,n){if(--n<=0)return t;var e=(t=Object.assign([],t)).length;do{for(var r=0;r<e;r++)t.push(t[r])}while(--n>0);return t}var Y,$=function(){function t(n){r(this,t),this.list=n,this.length=n.length}return u(t,[{key:"setAttribute",value:function(t,n){for(var e=this.list,r=0;r<this.length;r++)e[r].setAttribute(t,n)}},{key:"removeAttribute",value:function(t){for(var n=this.list,e=0;e<this.length;e++)n[e].removeAttribute(t)}},{key:"style",value:function(t,n){for(var e=this.list,r=0;r<this.length;r++)e[r].style[t]=n}}]),t}(),U=/-./g,Q=function(t,n){return n.toUpperCase()};function H(t){return"function"==typeof t?t:T}function J(t){return t?"function"==typeof t?t:Array.isArray(t)?function(t){var n=arguments.length>1&&void 0!==arguments[1]?arguments[1]:b;if(!Array.isArray(t))return n;switch(t.length){case 1:return k(t[0])||n;case 2:return k(t[0],t[1])||n;case 4:return A(t[0],t[1],t[2],t[3])||n}return n}(t,null):function(t,n){var e=arguments.length>2&&void 0!==arguments[2]?arguments[2]:b;switch(t){case"linear":return b;case"steps":return k(n.steps||1,n.jump||0)||e;case"bezier":case"cubic-bezier":return A(n.x1||0,n.y1||0,n.x2||0,n.y2||0)||e}return e}(t.type,t.value,null):null}function Z(t,n,e){var r=arguments.length>3&&void 0!==arguments[3]&&arguments[3],i=n.length-1;if(t<=n[0].t)return r?[0,0,n[0].v]:n[0].v;if(t>=n[i].t)return r?[i,1,n[i].v]:n[i].v;var u,o=n[0],a=null;for(u=1;u<=i;u++){if(!(t>n[u].t)){a=n[u];break}o=n[u]}return null==a?r?[i,1,n[i].v]:n[i].v:o.t===a.t?r?[u,1,a.v]:a.v:(t=(t-o.t)/(a.t-o.t),o.e&&(t=o.e(t)),r?[u,t,e(t,o.v,a.v)]:e(t,o.v,a.v))}function K(t,n){var e=arguments.length>2&&void 0!==arguments[2]?arguments[2]:null;return t&&t.length?"function"!=typeof n?null:("function"!=typeof e&&(e=null),function(r){var i=Z(r,t,n);return null!=i&&e&&(i=e(i)),i}):null}function W(t,n){return t.t-n.t}function X(t,n,r,i,u){var o,a="@"===r[0],l="#"===r[0],s=Y[r],f=T;switch(a?(o=r.substr(1),r=o.replace(U,Q)):l&&(r=r.substr(1)),e(s)){case"function":if(f=s(i,u,Z,J,r,a,n,t),l)return f;break;case"string":f=K(i,H(s));break;case"object":if((f=K(i,H(s.i),s.f))&&"function"==typeof s.u)return s.u(n,f,r,a,t)}return f?function(t,n,e){if(arguments.length>3&&void 0!==arguments[3]&&arguments[3])return t instanceof $?function(r){return t.style(n,e(r))}:function(r){return t.style[n]=e(r)};if(Array.isArray(n)){var r=n.length;return function(i){var u=e(i);if(null==u)for(var o=0;o<r;o++)t[o].removeAttribute(n);else for(var a=0;a<r;a++)t[a].setAttribute(n,u)}}return function(r){var i=e(r);null==i?t.removeAttribute(n):t.setAttribute(n,i)}}(n,r,f,a):null}function tt(t,n,r,i){if(!i||"object"!==e(i))return null;var u=null,o=null;return Array.isArray(i)?o=function(t){if(!t||!t.length)return null;for(var n=0;n<t.length;n++)t[n].e&&(t[n].e=J(t[n].e));return t.sort(W)}(i):(o=i.keys,u=i.data||null),o?X(t,n,r,o,u):null}function nt(t,n,e){if(!e)return null;var r=[];for(var i in e)if(e.hasOwnProperty(i)){var u=tt(t,n,i,e[i]);u&&r.push(u)}return r.length?r:null}function et(t,n){if(!n.settings.duration||n.settings.duration<0)return null;var e,r,i,u,o,a=function(t,n){if(!n)return null;var e=[];if(Array.isArray(n))for(var r=n.length,i=0;i<r;i++){var u=n[i];if(2===u.length){var o=null;if("string"==typeof u[0])o=t.getElementById(u[0]);else if(Array.isArray(u[0])){o=[];for(var a=0;a<u[0].length;a++)if("string"==typeof u[0][a]){var l=t.getElementById(u[0][a]);l&&o.push(l)}o=o.length?1===o.length?o[0]:new $(o):null}if(o){var s=nt(t,o,u[1]);s&&(e=e.concat(s))}}}else for(var f in n)if(n.hasOwnProperty(f)){var c=t.getElementById(f);if(c){var h=nt(t,c,n[f]);h&&(e=e.concat(h))}}return e.length?e:null}(t,n.elements);return a?(e=a,r=n.settings,i=r.duration,u=e.length,o=null,function(t,n){var a=r.iterations||1/0,l=(r.alternate&&a%2==0)^r.direction>0?i:0,s=t%i,f=1+(t-s)/i;n*=r.direction,r.alternate&&f%2==0&&(n=-n);var c=!1;if(f>a)s=l,c=!0,-1===r.fill&&(s=r.direction>0?0:i);else if(n<0&&(s=i-s),s===o)return!1;o=s;for(var h=0;h<u;h++)e[h](s);return c}):null}function rt(t,n){if(Y=n,!t||!t.root||!Array.isArray(t.animations))return null;var e=function(t){for(var n=document.getElementsByTagName("svg"),e=0;e<n.length;e++)if(n[e].id===t.root&&!n[e].svgatorAnimation)return n[e].svgatorAnimation=!0,n[e];return null}(t);if(!e)return null;var r=t.animations.map((function(t){return et(e,t)})).filter((function(t){return!!t}));return r.length?{svg:e,animations:r,animationSettings:t.animationSettings,options:t.options||void 0}:null}function it(t){return+("0x"+(t.replace(/[^0-9a-fA-F]+/g,"")||27))}function ut(t,n,e){return!t||!e||n>t.length?t:t.substring(0,n)+ut(t.substring(n+1),e,e)}function ot(t){var n=arguments.length>1&&void 0!==arguments[1]?arguments[1]:27;return!t||t%n?t%n:ot(t/n,n)}function at(t,n,e){if(t&&t.length){var r=it(e),i=it(n),u=ot(r)+5,o=ut(t,ot(r,5),u);return o=o.replace(/\x7c$/g,"==").replace(/\x2f$/g,"="),o=function(t,n,e){var r=+("0x"+t.substring(0,4));t=t.substring(4);for(var i=n%r+e%27,u=[],o=0;o<t.length;o+=2)if("|"!==t[o]){var a=+("0x"+t[o]+t[o+1])-i;u.push(a)}else{var l=+("0x"+t.substring(o+1,o+1+4))-i;o+=3,u.push(l)}return String.fromCharCode.apply(String,u)}(o=(o=atob(o)).replace(/[\x41-\x5A]/g,""),i,r),o=JSON.parse(o)}}var lt=[{key:"alternate",def:!1},{key:"fill",def:1},{key:"iterations",def:0},{key:"direction",def:1},{key:"speed",def:1},{key:"fps",def:100}],st=function(){function t(n,e){var i=this,u=arguments.length>2&&void 0!==arguments[2]?arguments[2]:null;r(this,t),this._id=0,this._running=!1,this._rollingBack=!1,this._animations=n,this._settings=e,(!u||u<"2022-05-02")&&delete this._settings.speed,lt.forEach((function(t){i._settings[t.key]=i._settings[t.key]||t.def})),this.duration=e.duration,this.offset=e.offset||0,this.rollbackStartOffset=0}return u(t,[{key:"alternate",get:function(){return this._settings.alternate}},{key:"fill",get:function(){return this._settings.fill}},{key:"iterations",get:function(){return this._settings.iterations}},{key:"direction",get:function(){return this._settings.direction}},{key:"speed",get:function(){return this._settings.speed}},{key:"fps",get:function(){return this._settings.fps}},{key:"maxFiniteDuration",get:function(){return this.iterations>0?this.iterations*this.duration:this.duration}},{key:"_apply",value:function(t){for(var n=arguments.length>1&&void 0!==arguments[1]?arguments[1]:{},e=this._animations,r=e.length,i=0,u=0;u<r;u++)n[u]?i++:(n[u]=e[u](t,1),n[u]&&i++);return i}},{key:"_rollback",value:function(t){var n=this,e=1/0,r=null;this.rollbackStartOffset=t,this._rollingBack=!0,this._running=!0;this._id=window.requestAnimationFrame((function i(u){if(n._rollingBack){null==r&&(r=u);var o=Math.round(t-(u-r)*n.speed);if(o>n.duration&&e!==1/0){var a=!!n.alternate&&o/n.duration%2>1,l=o%n.duration;o=(l+=a?n.duration:0)||n.duration}var s=(n.fps?1e3/n.fps:0)*n.speed,f=Math.max(0,o);f<=e-s&&(n.offset=f,e=f,n._apply(f));var c=n.iterations>0&&-1===n.fill&&o>=n.maxFiniteDuration;(o<=0||n.offset<o||c)&&n.stop(),n._id=window.requestAnimationFrame(i)}}))}},{key:"_start",value:function(){var t=this,n=arguments.length>0&&void 0!==arguments[0]?arguments[0]:0,e=-1/0,r=null,i={};this._running=!0;var u=function u(o){null==r&&(r=o);var a=Math.round((o-r)*t.speed+n),l=(t.fps?1e3/t.fps:0)*t.speed;if(a>=e+l&&!t._rollingBack&&(t.offset=a,e=a,t._apply(a,i)===t._animations.length))return void t.pause(!0);t._id=window.requestAnimationFrame(u)};this._id=window.requestAnimationFrame(u)}},{key:"_pause",value:function(){this._id&&window.cancelAnimationFrame(this._id),this._running=!1}},{key:"play",value:function(){if(!this._running)return this._rollingBack?this._rollback(this.offset):this._start(this.offset)}},{key:"stop",value:function(){this._pause(),this.offset=0,this.rollbackStartOffset=0,this._rollingBack=!1,this._apply(0)}},{key:"reachedToEnd",value:function(){return this.iterations>0&&this.offset>=this.iterations*this.duration}},{key:"restart",value:function(){var t=arguments.length>0&&void 0!==arguments[0]&&arguments[0];this.stop(t),this.play(t)}},{key:"pause",value:function(){this._pause()}},{key:"reverse",value:function(){this.direction=-this.direction}}],[{key:"build",value:function(t,n){delete t.animationSettings,t.options=at(t.options,t.root,"5c7f360c"),t.animations.map((function(n){n.settings=at(n.s,t.root,"5c7f360c"),delete n.s,t.animationSettings||(t.animationSettings=n.settings)}));var e=t.version;if(!(t=rt(t,n)))return null;var r=t.options||{},i=new this(t.animations,t.animationSettings,e);return{el:t.svg,options:r,player:i}}},{key:"push",value:function(t){return this.build(t)}},{key:"init",value:function(){var t=this,n=window.__SVGATOR_PLAYER__&&window.__SVGATOR_PLAYER__["5c7f360c"];Array.isArray(n)&&n.splice(0).forEach((function(n){return t.build(n)}))}}]),t}();function ft(t){return p(t)+""}function ct(t){var n=arguments.length>1&&void 0!==arguments[1]?arguments[1]:" ";return t&&t.length?t.map(ft).join(n):""}function ht(t){if(!t)return"transparent";if(null==t.a||t.a>=1){var n=function(t){return 1===(t=parseInt(t).toString(16)).length?"0"+t:t},e=function(t){return t.charAt(0)===t.charAt(1)},r=n(t.r),i=n(t.g),u=n(t.b);return e(r)&&e(i)&&e(u)&&(r=r.charAt(0),i=i.charAt(0),u=u.charAt(0)),"#"+r+i+u}return"rgba("+t.r+","+t.g+","+t.b+","+t.a+")"}function vt(t){return t?"url(#"+t+")":"none"}!function(){for(var t=0,n=["ms","moz","webkit","o"],e=0;e<n.length&&!window.requestAnimationFrame;++e)window.requestAnimationFrame=window[n[e]+"RequestAnimationFrame"],window.cancelAnimationFrame=window[n[e]+"CancelAnimationFrame"]||window[n[e]+"CancelRequestAnimationFrame"];window.requestAnimationFrame||(window.requestAnimationFrame=function(n){var e=Date.now(),r=Math.max(0,16-(e-t)),i=window.setTimeout((function(){n(e+r)}),r);return t=e+r,i},window.cancelAnimationFrame=window.clearTimeout)}();var yt={f:null,i:function(t,n,e){return 0===t?n:1===t?e:{x:B(t,n.x,e.x),y:B(t,n.y,e.y)}},u:function(t,n){return function(e){var r=n(e);t.setAttribute("rx",ft(r.x)),t.setAttribute("ry",ft(r.y))}}},gt={f:null,i:function(t,n,e){return 0===t?n:1===t?e:{width:B(t,n.width,e.width),height:B(t,n.height,e.height)}},u:function(t,n){return function(e){var r=n(e);t.setAttribute("width",ft(r.width)),t.setAttribute("height",ft(r.height))}}};Object.freeze({M:2,L:2,Z:0,H:1,V:1,C:6,Q:4,T:2,S:4,A:7});var pt={},dt=null;function mt(t){var n=function(){if(dt)return dt;if("object"!==("undefined"==typeof document?"undefined":e(document))||!document.createElementNS)return{};var t=document.createElementNS("http://www.w3.org/2000/svg","svg");return t&&t.style?(t.style.position="absolute",t.style.opacity="0.01",t.style.zIndex="-9999",t.style.left="-9999px",t.style.width="1px",t.style.height="1px",dt={svg:t}):{}}().svg;if(!n)return function(t){return null};var r=document.createElementNS(n.namespaceURI,"path");r.setAttributeNS(null,"d",t),r.setAttributeNS(null,"fill","none"),r.setAttributeNS(null,"stroke","none"),n.appendChild(r);var i=r.getTotalLength();return function(t){var n=r.getPointAtLength(i*t);return{x:n.x,y:n.y}}}function bt(t){return pt[t]?pt[t]:pt[t]=mt(t)}function wt(t,n,e,r){if(!t||!r)return!1;var i=["M",t.x,t.y];if(n&&e&&(i.push("C"),i.push(n.x),i.push(n.y),i.push(e.x),i.push(e.y)),n?!e:e){var u=n||e;i.push("Q"),i.push(u.x),i.push(u.y)}return n||e||i.push("L"),i.push(r.x),i.push(r.y),i.join(" ")}function At(t,n,e,r){var i=arguments.length>4&&void 0!==arguments[4]?arguments[4]:1,u=wt(t,n,e,r),o=bt(u);try{return o(i)}catch(t){return null}}function _t(t,n,e){return t+(n-t)*e}function xt(t,n,e){var r=arguments.length>3&&void 0!==arguments[3]&&arguments[3],i={x:_t(t.x,n.x,e),y:_t(t.y,n.y,e)};return r&&(i.a=kt(t,n)),i}function kt(t,n){return Math.atan2(n.y-t.y,n.x-t.x)}function St(t,n,e,r){var i=1-r;return i*i*t+2*i*r*n+r*r*e}function Ot(t,n,e,r){return 2*(1-r)*(n-t)+2*r*(e-n)}function jt(t,n,e,r){var i=arguments.length>4&&void 0!==arguments[4]&&arguments[4],u=At(t,n,null,e,r);return u||(u={x:St(t.x,n.x,e.x,r),y:St(t.y,n.y,e.y,r)}),i&&(u.a=Et(t,n,e,r)),u}function Et(t,n,e,r){return Math.atan2(Ot(t.y,n.y,e.y,r),Ot(t.x,n.x,e.x,r))}function Mt(t,n,e,r,i){var u=i*i;return i*u*(r-t+3*(n-e))+3*u*(t+e-2*n)+3*i*(n-t)+t}function Pt(t,n,e,r,i){var u=1-i;return 3*(u*u*(n-t)+2*u*i*(e-n)+i*i*(r-e))}function It(t,n,e,r,i){var u=arguments.length>5&&void 0!==arguments[5]&&arguments[5],o=At(t,n,e,r,i);return o||(o={x:Mt(t.x,n.x,e.x,r.x,i),y:Mt(t.y,n.y,e.y,r.y,i)}),u&&(o.a=Rt(t,n,e,r,i)),o}function Rt(t,n,e,r,i){return Math.atan2(Pt(t.y,n.y,e.y,r.y,i),Pt(t.x,n.x,e.x,r.x,i))}function Ft(t,n,e){var r=arguments.length>3&&void 0!==arguments[3]&&arguments[3];if(Tt(n)){if(qt(e))return jt(n,e.start,e,t,r)}else if(Tt(e)){if(Bt(n))return jt(n,n.end,e,t,r)}else{if(Bt(n))return qt(e)?It(n,n.end,e.start,e,t,r):jt(n,n.end,e,t,r);if(qt(e))return jt(n,e.start,e,t,r)}return xt(n,e,t,r)}function Nt(t,n,e){var r=Ft(t,n,e,!0);return r.a=function(t){return arguments.length>1&&void 0!==arguments[1]&&arguments[1]?t+Math.PI:t}(r.a)/m,r}function Tt(t){return!t.type||"corner"===t.type}function qt(t){return null!=t.start&&!Tt(t)}function Bt(t){return null!=t.end&&!Tt(t)}var Dt=new N;var Lt={f:ft,i:q},Ct={f:ft,i:D};function Vt(t,n,e){return t.map((function(t){return function(t,n,e){var r=t.v;if(!r||"g"!==r.t||r.s||!r.v||!r.r)return t;var i=e.getElementById(r.r),u=i&&i.querySelectorAll("stop")||[];return r.s=r.v.map((function(t,n){var e=u[n]&&u[n].getAttribute("offset");return{c:t,o:e=p(parseInt(e)/100)}})),delete r.v,t}(t,0,e)}))}var Gt={gt:"gradientTransform",c:{x:"cx",y:"cy"},rd:"r",f:{x:"x1",y:"y1"},to:{x:"x2",y:"y2"}};function zt(t,n,r,i,u,o,a,l){return Vt(t,0,l),n=function(t,n,e){for(var r,i,u,o=t.length-1,a={},l=0;l<=o;l++)(r=t[l]).e&&(r.e=n(r.e)),r.v&&"g"===(i=r.v).t&&i.r&&(u=e.getElementById(i.r))&&(a[i.r]={e:u,s:u.querySelectorAll("stop")});return a}(t,i,l),function(i){var u=r(i,t,Yt);if(!u)return"none";if("c"===u.t)return ht(u.v);if("g"===u.t){if(!n[u.r])return vt(u.r);var o=n[u.r];return function(t,n){for(var e=t.s,r=e.length;r<n.length;r++){var i=e[e.length-1].cloneNode();i.id=Qt(i.id),t.e.appendChild(i),e=t.s=t.e.querySelectorAll("stop")}for(var u=0,o=e.length,a=n.length-1;u<o;u++)e[u].setAttribute("stop-color",ht(n[Math.min(u,a)].c)),e[u].setAttribute("offset",n[Math.min(u,a)].o)}(o,u.s),Object.keys(Gt).forEach((function(t){if(void 0!==u[t])if("object"!==e(Gt[t])){var n,r="gt"===t?(n=u[t],Array.isArray(n)?"matrix("+n.join(" ")+")":""):u[t],i=Gt[t];o.e.setAttribute(i,r)}else Object.keys(Gt[t]).forEach((function(n){if(void 0!==u[t][n]){var e=u[t][n],r=Gt[t][n];o.e.setAttribute(r,e)}}))})),vt(u.r)}return"none"}}function Yt(t,e,r){if(0===t)return e;if(1===t)return r;if(e&&r){var i=e.t;if(i===r.t)switch(e.t){case"c":return{t:i,v:V(t,e.v,r.v)};case"g":if(e.r===r.r){var u={t:i,s:$t(t,e.s,r.s),r:e.r};return e.gt&&r.gt&&(u.gt=function(t,n,e){var r=n.length;if(r!==e.length)return T(t,n,e);for(var i=new Array(r),u=0;u<r;u++)i[u]=q(t,n[u],e[u]);return i}(t,e.gt,r.gt)),e.c?(u.c=L(t,e.c,r.c),u.rd=B(t,e.rd,r.rd)):e.f&&(u.f=L(t,e.f,r.f),u.to=L(t,e.to,r.to)),u}}if("c"===e.t&&"g"===r.t||"c"===r.t&&"g"===e.t){var o="c"===e.t?e:r,a="g"===e.t?n({},e):n({},r),l=a.s.map((function(t){return{c:o.v,o:t.o}}));return a.s="c"===e.t?$t(t,l,a.s):$t(t,a.s,l),a}}return T(t,e,r)}function $t(t,n,e){if(n.length===e.length)return n.map((function(n,r){return Ut(t,n,e[r])}));for(var r=Math.max(n.length,e.length),i=[],u=0;u<r;u++){var o=Ut(t,n[Math.min(u,n.length-1)],e[Math.min(u,e.length-1)]);i.push(o)}return i}function Ut(t,n,e){return{o:D(t,n.o,e.o||0),c:V(t,n.c,e.c||{})}}function Qt(t){return t.replace(/-fill-([0-9]+)$/,(function(t,n){return"-fill-"+(+n+1)}))}var Ht={fill:zt,"fill-opacity":Ct,stroke:zt,"stroke-opacity":Ct,"stroke-width":Lt,"stroke-dashoffset":{f:ft,i:q},"stroke-dasharray":{f:function(t){var n=arguments.length>1&&void 0!==arguments[1]?arguments[1]:" ";return t&&t.length>0&&(t=t.map((function(t){return p(t,4)}))),ct(t,n)},i:function(t,n,e){var r,i,u,o=n.length,a=e.length;if(o!==a)if(0===o)n=G(o=a,0);else if(0===a)a=o,e=G(o,0);else{var l=(u=(r=o)*(i=a)/function(t,n){for(var e;n;)e=n,n=t%n,t=e;return t||1}(r,i))<0?-u:u;n=z(n,Math.floor(l/o)),e=z(e,Math.floor(l/a)),o=a=l}for(var s=[],f=0;f<o;f++)s.push(p(B(t,n[f],e[f])));return s}},opacity:Ct,transform:function(t,n,r,i){if(!(t=function(t,n){if(!t||"object"!==e(t))return null;var r=!1;for(var i in t)t.hasOwnProperty(i)&&(t[i]&&t[i].length?(t[i].forEach((function(t){t.e&&(t.e=n(t.e))})),r=!0):delete t[i]);return r?t:null}(t,i)))return null;var u=function(e,i,u){var o=arguments.length>3&&void 0!==arguments[3]?arguments[3]:null;return t[e]?r(i,t[e],u):n&&n[e]?n[e]:o};return n&&n.a&&t.o?function(n){var e=r(n,t.o,Nt);return Dt.recomposeSelf(e,u("r",n,q,0)+e.a,u("k",n,L),u("s",n,L),u("t",n,L)).toString()}:function(t){return Dt.recomposeSelf(u("o",t,Ft,null),u("r",t,q,0),u("k",t,L),u("s",t,L),u("t",t,L)).toString()}},r:Lt,"#size":gt,"#radius":yt,_:function(t,n){if(Array.isArray(t))for(var e=0;e<t.length;e++)this[t[e]]=n;else this[t]=n}},Jt=function(t){!function(t,n){if("function"!=typeof n&&null!==n)throw new TypeError("Super expression must either be null or a function");t.prototype=Object.create(n&&n.prototype,{constructor:{value:t,writable:!0,configurable:!0}}),n&&l(t,n)}(o,t);var n,e,i=(n=o,e=s(),function(){var t,r=a(n);if(e){var i=a(this).constructor;t=Reflect.construct(r,arguments,i)}else t=r.apply(this,arguments);return c(this,t)});function o(){return r(this,o),i.apply(this,arguments)}return u(o,null,[{key:"build",value:function(t){var n=h(a(o),"build",this).call(this,t,Ht);if(!n)return null;n.el,n.options,function(t,n,e){t.play()}(n.player)}}]),o}(st);return Jt.init(),Jt}));
(function(s,i,o,w,d,a,b){w[o]=w[o]||{};w[o][s]=w[o][s]||[];w[o][s].push(i);})('5c7f360c',{"root":"gsv_logo_1_1_animation","version":"2022-05-04","animations":[{"elements":{"gsv_logo_1_1_animation-s-g9":{"transform":{"data":{"o":{"x":467.699997,"y":540.5,"type":"corner"},"t":{"x":-467.699997,"y":-540.5}},"keys":{"r":[{"t":0,"v":0},{"t":1000,"v":90},{"t":2000,"v":180},{"t":3000,"v":270},{"t":4000,"v":360},{"t":5000,"v":450},{"t":6000,"v":540},{"t":7000,"v":630},{"t":8000,"v":720}]}}}},"s":"MJDA1ZGMxNjhhYWJiYjHhhN2JhYWZiNWI0NjgM4MDdlNzY3Njc2NzJBFNjhhYWFmYjhhYmE5YLmFEYWZiNWI0Njg4MDDc3NzI2OGFmYmFhYmIK4YTdiYVJhZmI1YjRiNOTY4ODA3NjcyNjhhYD2FmYjJiMjY4ODA3NzScyNjhhN2IyYmFhYmIG4SWI0YTdiYWFiNjg4GMGFjYTdiMmI5YWI3MOjY4YjliNmFiYWJhYTDY4ODA3NzcyNjhhY2IY2Yjk2ODgwNzc3Njc2EYzM/"}],"options":"MODAxMDkxMzg4OThhNzBc4ODhhMzhINTAzOFcO4Mjg1Nzc3YTM4OTNYQ"},'__SVGATOR_PLAYER__',window,document)
]]></script>
</svg>
