<svg id="gsv_logo_1_1_790-300" xmlns="http://www.w3.org/2000/svg" xmlns:xlink="http://www.w3.org/1999/xlink" viewBox="0 0 790 300" shape-rendering="geometricPrecision" text-rendering="geometricPrecision"><g id="gsv_logo_1_1_790-300-s-g1" transform="matrix(.522967 0 0 0.522967-107.02217-132.663663)"><g id="gsv_logo_1_1_790-300-s-g2"><g id="gsv_logo_1_1_790-300-s-g3"><g id="gsv_logo_1_1_790-300-s-g4"><path id="gsv_logo_1_1_790-300-s-path1" d="M772.1,611.1c-9.6-4-17.2-9.9-23.1-17.9-5.8-8-8.7-17.6-8.7-28.9v-62.2c0-11,2.9-20.5,8.8-28.3c5.9-7.9,13.6-13.8,23.2-17.8s19.7-6,30.4-6c12.5,0,24.1,2.9,34.8,8.8c10.6,5.9,18.8,14.8,24.4,26.7L838,497c-3.4-6.9-8.3-12-14.8-15.4s-13.5-5-21-5c-9.6,0-18,2.3-25,6.8s-10.6,10.8-10.6,18.9v62c0,8.3,3.6,14.7,10.7,19.3s15.6,6.9,25.4,6.9c9.9,0,18.5-2.3,25.7-6.9s10.8-11,10.8-19.3v-12.8h-45.7v-25.5h72v38.3c0,11.3-2.9,21-8.8,28.9-5.9,8-13.6,13.9-23.2,17.9s-19.8,6-30.9,6c-10.7,0-20.9-2-30.5-6Z" fill="#184786"/><path id="gsv_logo_1_1_790-300-s-path2" d="M907.5,606.9c-11.1-6.8-19.4-16.5-24.9-29l24.3-11c3.5,7.7,8.6,13.5,15.3,17.6s13.9,6.1,21.7,6.1c9.3,0,17.2-2,23.6-5.9s9.6-9.5,9.6-16.9c0-5.2-1.6-9.4-4.8-12.5s-7.3-5.5-12.2-7-11.5-3.1-19.7-4.6c-16.8-3.2-30.2-8.4-40-15.6-9.9-7.2-14.8-17.4-14.8-30.7c0-9.2,2.7-17.4,8-24.6c5.4-7.2,12.5-12.8,21.5-16.8c8.9-4,18.5-6,28.6-6c13.2,0,24.9,2.8,35.1,8.4s18,14.5,23.4,26.7l-24.1,10.8c-3.2-7-7.7-12-13.5-14.9s-12.8-4.4-20.9-4.4c-8.6,0-16,1.9-22.3,5.6-6.3,3.8-9.4,8.9-9.4,15.5c0,5.8,3,10.2,8.9,13.1c6,2.9,14.4,5.4,25.2,7.3c18.4,3.4,32.6,8.8,42.8,16.2s15.3,18.6,15.3,33.4c0,10.6-2.8,19.5-8.3,27-5.5,7.4-12.8,13-22,16.8-9.2,3.7-19.4,5.6-30.5,5.6-12.8,0-24.8-3.4-35.9-10.2Z" fill="#184786"/><path id="gsv_logo_1_1_790-300-s-path3" d="M1010.2,452.3h28.2l35.8,103.3l7.8,30.5h2.3l6.9-31l36.3-102.8h28L1097,614.8h-28l-58.8-162.5Z" fill="#184786"/><path id="gsv_logo_1_1_790-300-s-path4" d="M1319.5,478.9h-80.5v41.3h74.1v26.6h-74.1v41.3h80.5v26.6h-107.2v-162.4h107.2v26.6Z" fill="#184786"/><path id="gsv_logo_1_1_790-300-s-path5" d="M1386.7,533.8l-55.1-81.5h32.1l39.2,61l39.2-61h32.1l-55.3,81.5l55.5,81h-32.4l-39.2-60.3-39.2,60.3h-32.6l55.7-81Z" fill="#184786"/><path id="gsv_logo_1_1_790-300-s-path6" d="M1492.5,452.3h26.4v162.5h-26.4v-162.5Z" fill="#184786"/><path id="gsv_logo_1_1_790-300-s-path7" d="M1551.9,452.3h29.6l44.7,105.5l45.2-105.5h29.8v162.5h-26.6v-74.6l5-44.1h-2.3l-13.8,38.3-26.6,57.8h-20.9l-26.8-57.8-13.5-39h-2.3l4.8,45v74.3h-26.4v-162.4Z" fill="#184786"/></g><g id="gsv_logo_1_1_790-300-s-g5"><path id="gsv_logo_1_1_790-300-s-path8" d="M906.4,667.3L895.5,648h4.4l8.4,15.5l8.5-15.5h4.5l-11.1,19.3v12.4h-3.8v-12.4Z" fill="#f17421"/><path id="gsv_logo_1_1_790-300-s-path9" d="M936.2,679c-1.9-.8-3.4-1.9-4.6-3.4s-1.7-3.3-1.7-5.3v-12.9c0-2.1.6-3.9,1.7-5.3c1.2-1.5,2.7-2.6,4.6-3.3s3.9-1.1,6.1-1.1c2.1,0,4.2.4,6.1,1.1s3.4,1.9,4.6,3.3c1.2,1.5,1.8,3.3,1.8,5.3v12.9c0,2.1-.6,3.9-1.8,5.3-1.2,1.5-2.7,2.6-4.6,3.4s-3.9,1.1-6.1,1.1-4.2-.3-6.1-1.1Zm12.2-4.3c1.7-1.1,2.6-2.6,2.6-4.5v-12.8c0-2-.8-3.5-2.5-4.5s-3.8-1.5-6.2-1.5-4.5.6-6.1,1.6c-1.7,1-2.5,2.5-2.5,4.4v12.8c0,1.9.9,3.4,2.6,4.5s3.7,1.6,6.1,1.6c2.2.1,4.3-.5,6-1.6Z" fill="#f17421"/><path id="gsv_logo_1_1_790-300-s-path10" d="M973.7,679c-1.8-.8-3.3-1.9-4.4-3.4s-1.7-3.3-1.7-5.4v-22.2h3.8v22.1c0,2,.8,3.5,2.4,4.6s3.5,1.6,5.6,1.6c1.4,0,2.7-.2,4-.7c1.2-.5,2.2-1.2,3-2.1s1.1-2.1,1.1-3.4v-22.1h3.8v22.2c0,2.1-.6,3.9-1.7,5.4s-2.6,2.6-4.4,3.4-3.7,1.1-5.8,1.1c-2,0-3.9-.3-5.7-1.1Z" fill="#f17421"/><path id="gsv_logo_1_1_790-300-s-path11" d="M1032.5,648.1c2.1,0,3.9.3,5.7,1c1.7.7,3.1,1.7,4.1,3.1s1.5,3.2,1.5,5.3v12.8c0,3.1-1.1,5.4-3.2,7s-4.8,2.3-8,2.3h-11.1v-31.6h11Zm5.3,26.4c1.4-.9,2.1-2.3,2.1-4.2v-12.8c0-1.9-.7-3.3-2.1-4.3-1.4-.9-3.2-1.4-5.4-1.4h-7.4v24h7.4c2.3.1,4-.4,5.4-1.3Z" fill="#f17421"/><path id="gsv_logo_1_1_790-300-s-path12" d="M1077.1,651.9h-16.4v10.1h15.1v3.8h-15.1v10.1h16.4v3.8h-20.1v-31.6h20.1v3.8Z" fill="#f17421"/><path id="gsv_logo_1_1_790-300-s-path13" d="M1089.7,648.1h4.6l9.6,22.3l9.6-22.3h4.6v31.6h-3.8v-18.7l.7-7h-.4l-2.3,6.2-6.7,14.9h-3.2l-6.9-15.1-2.2-6.1h-.4l.6,6.9v18.9h-3.8v-31.6Z" fill="#f17421"/><path id="gsv_logo_1_1_790-300-s-path14" d="M1152.1,679.7l-3.4-9.3h-12.4l-3.3,9.3h-4.1l11.5-31.6h4.2l11.5,31.6h-4Zm-10.8-23.8l-3.7,10.7h9.7l-3.7-10.7-1.1-4h-.2l-1,4Z" fill="#f17421"/><path id="gsv_logo_1_1_790-300-s-path15" d="M1166.9,648.1h4.2l13.1,21.9l2.7,5.1h.1l-.5-5.5v-21.4h3.8v31.6h-4.6L1172.6,658l-2.4-4.6h-.1l.5,5.1v21.4h-3.8v-31.8Z" fill="#f17421"/><path id="gsv_logo_1_1_790-300-s-path16" d="M1215.5,648.1c2.1,0,3.9.3,5.7,1c1.7.7,3.1,1.7,4.1,3.1s1.5,3.2,1.5,5.3v12.8c0,3.1-1.1,5.4-3.2,7s-4.8,2.3-8,2.3h-11.1v-31.6h11Zm5.3,26.4c1.4-.9,2.1-2.3,2.1-4.2v-12.8c0-1.9-.7-3.3-2.1-4.3-1.4-.9-3.2-1.4-5.4-1.4h-7.4v24h7.4c2.3.1,4-.4,5.4-1.3Z" fill="#f17421"/><path id="gsv_logo_1_1_790-300-s-path17" d="M1252.3,648.1h4l6.5,22.6.8,4.6h.3l.9-4.8l5.9-17.7h3.4l5.9,17.9l1.1,4.6h.4l.7-4.5l6.5-22.6h3.9l-9.2,31.6h-4.2l-6-18.5-.6-3.3h-.1l-.7,3.3-5.9,18.5h-4.2l-9.4-31.7Z" fill="#184786"/><path id="gsv_logo_1_1_790-300-s-path18" d="M1323.9,651.9h-16.4v10.1h15.1v3.8h-15.1v10.1h16.4v3.8h-20.1v-31.6h20.1v3.8Z" fill="#184786"/><path id="gsv_logo_1_1_790-300-s-path19" d="M1372.9,651.9h-16.4v10.1h15.1v3.8h-15.1v10.1h16.4v3.8h-20.1v-31.6h20.1v3.8Z" fill="#184786"/><path id="gsv_logo_1_1_790-300-s-path20" d="M1393.1,663.9L1382.5,648h4.6l8.4,12.9l8.4-12.9h4.6l-10.6,15.9l10.7,15.8h-4.6l-8.4-12.9-8.4,12.9h-4.6l10.5-15.8Z" fill="#184786"/><path id="gsv_logo_1_1_790-300-s-path21" d="M1431.2,648.1c2.2,0,4.1.5,5.7,1.5s2.8,2.2,3.6,3.8c.8,1.5,1.2,3.2,1.2,4.9s-.4,3.4-1.2,4.9-2,2.7-3.6,3.7c-1.6.9-3.5,1.4-5.7,1.4h-8.2v11.5h-3.8v-31.6h12Zm3.7,15.7c1-.6,1.8-1.4,2.3-2.4s.8-2,.8-3.1-.3-2.1-.8-3.1-1.3-1.8-2.3-2.4-2.2-.9-3.7-.9h-8.1v12.9h8.1c1.4-.1,2.7-.4,3.7-1Z" fill="#184786"/><path id="gsv_logo_1_1_790-300-s-path22" d="M1459.2,679c-1.9-.8-3.4-1.9-4.6-3.4s-1.7-3.3-1.7-5.3v-12.9c0-2.1.6-3.9,1.7-5.3c1.2-1.5,2.7-2.6,4.6-3.3s3.9-1.1,6.1-1.1c2.1,0,4.2.4,6.1,1.1s3.4,1.9,4.6,3.3s1.8,3.3,1.8,5.3v12.9c0,2.1-.6,3.9-1.8,5.3-1.2,1.5-2.7,2.6-4.6,3.4s-3.9,1.1-6.1,1.1-4.2-.3-6.1-1.1Zm12.2-4.3c1.7-1.1,2.6-2.6,2.6-4.5v-12.8c0-2-.8-3.5-2.5-4.5s-3.8-1.5-6.2-1.5-4.5.6-6.1,1.6c-1.7,1-2.5,2.5-2.5,4.4v12.8c0,1.9.9,3.4,2.6,4.5s3.7,1.6,6.1,1.6c2.2.1,4.3-.5,6-1.6Z" fill="#184786"/><path id="gsv_logo_1_1_790-300-s-path23" d="M1499.6,666.8h-4.9v12.9h-3.8v-31.6h11.9c3.2,0,5.7.8,7.6,2.3s2.9,3.9,3,7.1c0,2.9-.8,5.2-2.5,6.8s-3.9,2.4-6.9,2.6l10,12.9h-4.6l-9.8-13Zm-4.9-3.3h8.1c4.6,0,6.8-2,6.8-6c0-3.8-2.3-5.7-6.8-5.7h-8.1v11.7Z" fill="#184786"/><path id="gsv_logo_1_1_790-300-s-path24" d="M1532.4,651.9h-9.9v-3.8h23.6v3.8h-9.9v27.8h-3.8v-27.8Z" fill="#184786"/></g></g><g id="gsv_logo_1_1_790-300-s-g6"><g id="gsv_logo_1_1_790-300-s-g7"><path id="gsv_logo_1_1_790-300-s-path25" d="M433.6,468.7c-8.6,10.9-13.8,25.6-13.8,41.8c0,33.7,22.8,61.1,51,61.1c21.2,0,39.4-15.5,47.1-37.6l-54.5-30.5L558.6,520c-2.5,11.4-6.3,23.3-11,35.4-15.5,39.5-42.1,81.7-75.4,119.6-125.6-103.4-139.5-266.3,0-269.1c66.2,1.3,92.1,36.4,90.3,85l-46.2-8c-8.4-19.9-25.7-33.6-45.6-33.6-14.5.1-27.8,7.5-37.1,19.4Z" fill="#184786"/><polygon id="gsv_logo_1_1_790-300-s-polygon1" points="560.2,519.9 462.2,503 525.4,540.5 527.9,614" fill="#f17421"/></g><g id="gsv_logo_1_1_790-300-s-g8"><g id="gsv_logo_1_1_790-300-s-g9"><path id="gsv_logo_1_1_790-300-s-path26" d="M577.8,420.6c-25-23-57.2-38.2-92.9-41.9-5.6-.6-11.4-.9-17.2-.9s-11.5.3-17.2.9c-32.4,3.4-62,16.3-85.9,35.9l12.5,8.4c25.1-19.4,56.5-30.9,90.7-30.9c44.5,0,84.5,19.6,111.7,50.7l5.5-8.2l2.7-4.1c-3.2-3.5-6.5-6.8-9.9-9.9Z" fill="#184786"/><path id="gsv_logo_1_1_790-300-s-path27" d="M357.7,420.6v0c-3.5,3.1-6.7,6.5-9.9,9.9-23,25-38.2,57.2-41.9,92.9-.6,5.6-.9,11.4-.9,17.2s.3,11.5.9,17.2c3.4,32.4,16.3,62,35.9,86l8.4-12.5c-19.4-25.1-30.9-56.5-30.9-90.7c0-44.5,19.6-84.5,50.7-111.7l-8.2-5.5-4.1-2.8Z" fill="#184786"/><path id="gsv_logo_1_1_790-300-s-path28" d="M629.6,523.3c-3.4-32.4-16.3-62-35.9-85.9l-8.4,12.4c19.4,25.1,30.9,56.5,30.9,90.7c0,44.5-19.6,84.5-50.7,111.7l8.1,5.5l4.1,2.7c3.4-3.1,6.7-6.5,9.9-9.9c23-25,38.2-57.2,41.9-92.9.6-5.6.9-11.4.9-17.2.1-5.7-.2-11.4-.8-17.1Z" fill="#f17421"/><path id="gsv_logo_1_1_790-300-s-path29" d="M558.4,658.1c-25.1,19.4-56.5,30.9-90.7,30.9-44.6,0-84.5-19.6-111.7-50.7l-5.5,8.2-2.7,4.1c3.1,3.4,6.4,6.7,9.9,9.9c25,23,57.2,38.2,92.9,41.9c5.6.6,11.4.9,17.2.9s11.5-.3,17.2-.9c32.4-3.4,62-16.3,85.9-35.9l-12.5-8.4Z" fill="#f17421"/><polygon id="gsv_logo_1_1_790-300-s-polygon2" points="467.7,291.5 449.7,382.7 467.7,382.7 485.7,382.7" fill="#184786"/><polygon id="gsv_logo_1_1_790-300-s-polygon3" points="607.7,400.5 587.6,430.5 587.6,430.5 584.9,434.5 573.7,423.3 577.8,420.6" fill="#184786"/><polygon id="gsv_logo_1_1_790-300-s-polygon4" points="607.7,680.5 577.7,660.4 573.7,657.7 579.3,652.1 584.9,646.5 587.6,650.5" fill="#f17421"/><polygon id="gsv_logo_1_1_790-300-s-polygon5" points="361.7,657.7 357.7,660.4 327.7,680.5 347.8,650.5 347.8,650.5 350.5,646.5" fill="#f17421"/><polygon id="gsv_logo_1_1_790-300-s-polygon6" points="327.7,400.5 350.5,434.5 356.1,428.9 361.8,423.3" fill="#184786"/><polygon id="gsv_logo_1_1_790-300-s-polygon7" points="716.7,540.5 625.5,522.5 625.5,540.5 625.5,558.5" fill="#f17421"/><polygon id="gsv_logo_1_1_790-300-s-polygon8" points="467.7,789.5 485.7,698.3 467.7,698.3 449.7,698.3" fill="#f17421"/><polygon id="gsv_logo_1_1_790-300-s-polygon9" points="218.7,540.5 309.9,558.5 309.9,540.5 309.9,522.5" fill="#184786"/></g></g></g></g></g></svg>
